<?xml version="1.0" encoding="utf-8"?>
<!-- Generator: Adobe Illustrator 18.1.1, SVG Export Plug-In . SVG Version: 6.00 Build 0)  -->
<svg version="1.1" xmlns="http://www.w3.org/2000/svg" xmlns:xlink="http://www.w3.org/1999/xlink" x="0px" y="0px"
	 viewBox="0 0 256 256" enable-background="new 0 0 256 256" xml:space="preserve">
<g id="background">
	<linearGradient id="SVGID_1_" gradientUnits="userSpaceOnUse" x1="38.2766" y1="68.7965" x2="224.955" y2="176.5754">
		<stop  offset="0.1" style="stop-color:#86AEFF"/>
		<stop  offset="0.2786" style="stop-color:#BEACF2"/>
		<stop  offset="0.4242" style="stop-color:#E5ABE9"/>
		<stop  offset="0.5" style="stop-color:#F4ABE6"/>
		<stop  offset="0.9" style="stop-color:#FFD594"/>
	</linearGradient>
	<path fill="url(#SVGID_1_)" d="M253,128h-19.2c0,56.6-45.9,102.6-102.6,102.6c-51.2,0-93.7-37.5-101.3-86.6c-0.2-1.2-1-2.2-2.1-2.6
		l-23-8.4l-0.1,0c-1-0.4-1.8-1.4-1.7-2.6c0.1-1.4,1.3-2.4,2.7-2.4h42.2c0-56.6,45.9-102.6,102.6-102.6S253,71.4,253,128z"/>
</g>
<g id="foreground">
	<linearGradient id="SVGID_2_" gradientUnits="userSpaceOnUse" x1="62.5385" y1="173.1958" x2="219.1017" y2="82.804">
		<stop  offset="0" style="stop-color:#EAEAEA"/>
		<stop  offset="1" style="stop-color:#FAFAFA"/>
	</linearGradient>
	<path fill="url(#SVGID_2_)" d="M150.4,45.9c-40,0-73.3,28.6-80.6,66.4c-0.3,1.3,0.5,2.7,1.8,3.1l20.6,7.5l0.1,0
		c1,0.4,1.8,1.4,1.7,2.6c-0.1,1.4-1.3,2.4-2.7,2.4H49.2c0,45.3,36.7,82.1,82.1,82.1s82.1-36.7,82.1-82.1h19.2
		C232.5,82.7,195.7,45.9,150.4,45.9z M122.8,107.5c-5.7,0-10.3-4.6-10.3-10.3c0-5.7,4.6-10.3,10.3-10.3c5.7,0,10.3,4.6,10.3,10.3
		C133,102.9,128.4,107.5,122.8,107.5z M178.1,107.5c-5.7,0-10.3-4.6-10.3-10.3c0-5.7,4.6-10.3,10.3-10.3c5.7,0,10.3,4.6,10.3,10.3
		C188.4,102.9,183.8,107.5,178.1,107.5z"/>
</g>
</svg>
